# AST/ASF file generated using VICON BodyLanguage
# -----------------------------------------------
:version 1.10
:name VICON
:units
  mass 1.0
  length 0.45
  angle deg
:documentation
   .ast/.asf automatically generated from VICON data using
   VICON BodyBuilder and BodyLanguage model FoxedUp or BRILLIANT.MOD
:root
   order TX TY TZ RX RY RZ
   axis XYZ
   position 0 0 0  
   orientation 0 0 0 
:bonedata
  begin
     id 1 
     name lhipjoint
     direction 0.561001 -0.76473 0.316963 
     length 2.4722 
     axis 0 0 0  XYZ
  end
  begin
     id 2 
     name lfemur
     direction 0.34202 -0.939693 0  
     length 7.59403  
     axis 0 0 20  XYZ
    dof rx ry rz
    limits (-160.0 20.0)
           (-70.0 70.0)
           (-60.0 70.0)
  end
  begin
     id 3 
     name ltibia
     direction 0.34202 -0.939693 0   
     length 7.89655   
     axis 0 0 20   XYZ
    dof rx
    limits (-10.0 170.0)
  end
  begin
     id 4 
     name lfoot
     direction 0.061296 -0.168409 0.98381   
     length 2.73287   
     axis -90 7.62852e-016 20   XYZ
    dof rx rz
    limits (-45.0 90.0)
           (-70.0 20.0)
  end
  begin
     id 5 
     name ltoes
     direction 1.53547e-011 -4.21984e-011 1   
     length 1.37057   
     axis -90 7.62852e-016 20   XYZ
    dof rx
    limits (-90.0 20.0)
  end
  begin
     id 6 
     name rhipjoint
     direction -0.559611 -0.765599 0.317323   
     length 2.46939  
     axis 0 0 0  XYZ 
  end
  begin
     id 7 
     name rfemur
     direction -0.34202 -0.939693 0   
     length 7.53712   
     axis 0 0 -20   XYZ
    dof rx ry rz
    limits (-160.0 20.0)
           (-70.0 70.0)
           (-70.0 60.0)
  end
  begin
     id 8 
     name rtibia
     direction -0.34202 -0.939693 0   
     length 8.12549   
     axis 0 0 -20   XYZ
    dof rx
    limits (-10.0 170.0)
 end
 begin
     id 9 
     name rfoot
     direction -0.066984 -0.184037 0.980634   
     length 2.67541  
     axis -90 -7.62852e-016 -20   XYZ
    dof rx rz
    limits (-45.0 90.0)
           (-20.0 70.0)
  end
  begin
     id 10 
     name rtoes
     direction -1.53549e-011 -4.21786e-011 1   
     length 1.34085   
     axis -90 -7.62852e-016 -20   XYZ
    dof rx
    limits (-90.0 20.0)
  end
  begin
     id 11 
     name lowerback
     direction -0.0522728 0.992594 -0.109658   
     length 2.05633   
     axis 0 0 0   XYZ
    dof rx ry rz
    limits (-20.0 45.0)
           (-30.0 30.0)
           (-30.0 30.0)
  end
  begin
     id 12 
     name upperback
     direction 0.00589338 0.999977 0.00335704   
     length 2.05845   
     axis 0 0 0   XYZ
    dof rx ry rz
    limits (-20.0 45.0)
           (-30.0 30.0)
           (-30.0 30.0)
  end
  begin
     id 13 
     name thorax
     direction 0.0292928 0.998059 0.0549487   
     length 2.09281   
     axis 0 0 0   XYZ
    dof rx ry rz
    limits (-20.0 45.0)
           (-30.0 30.0)
           (-30.0 30.0)
  end
  begin
     id 14 
     name lowerneck
     direction 0.0356368 0.980775 0.191858   
     length 1.84767   
     axis 0 0 0   XYZ
    dof rx ry rz
    limits (-20.0 45.0)
           (-30.0 30.0)
           (-30.0 30.0)
  end
  begin
     id 15 
     name upperneck
     direction -0.0227605 0.98931 -0.14404   
     length 1.89582   
     axis 0 0 0   XYZ
    dof rx ry rz
    limits (-20.0 45.0)
           (-30.0 30.0)
           (-30.0 30.0)
  end
  begin
     id 16
     name head
     direction -0.00932985 0.997511 -0.0698904  
     length 1.90213  
     axis 0 0 0   XYZ
    dof rx ry rz
    limits (-20.0 45.0)
           (-30.0 30.0)
           (-30.0 30.0)
  end
  begin
     id 17 
     name lclavicle
     direction 0.873442 0.479511 0.0846686  
     length 3.41193  
     axis 0 0 0   XYZ
    dof ry rz
    limits (-20.0 10.0)
           (0.0 20.0)
  end
  begin
     id 18 
     name lhumerus
     direction 1 -4.4897e-011 -5.62117e-018   
     length 5.59864   
     axis 180 -30 -90   XYZ
    dof rx ry rz
    limits (-60.0 90.0)
           (-90.0 90.0)
           (-90.0 90.0)
  end
  begin
     id 19
     name lradius
     direction 1 -4.48966e-011 -6.26295e-027   
     length 3.59542   
     axis 180 -30 -90   XYZ
    dof rx
    limits (-10.0 170.0)
  end
  begin
     id 20
     name lwrist
     direction 1 -4.48947e-011 -1.74096e-026   
     length 1.79771   
     axis 1.04567e-014 90 90   XYZ
    dof ry
    limits (-180.0 0.0)
 end
  begin
     id 21 
     name lhand
     direction 1 -4.49085e-011 -3.48469e-026   
     length 0.572014   
     axis 2.22196e-014 90 90   XYZ
    dof rx rz
    limits (-90.0 90.0)
           (-45.0 45.0)
  end
  begin
     id 22 
     name lfingers
     direction 1 -4.48884e-011 -6.96135e-026   
     length 0.461173   
     axis 4.44383e-014 90 90   XYZ
    dof rx
    limits (0.0 90.0)
  end
  begin
     id 23
     name lthumb
     direction 0.707107 -6.34976e-011 0.707107   
     length 0.662154   
     axis -90 45 -5.4397e-014   XYZ
    dof rx rz
    limits (-45.0 45.0)
           (-45.0 45.0)
  end
  begin
     id 24 
     name rclavicle
     direction -0.890242 0.443271 0.104786   
     length 3.46753  
     axis 0 0 0   XYZ 
    dof ry rz
    limits (-10.0 20.0)
           (-20.0 0.0)
  end
  begin
     id 25 
     name rhumerus
     direction -1 -4.48963e-011 -5.41723e-018  
     length 5.8094   
     axis 180 30 90   XYZ
    dof rx ry rz
    limits (-90.0 60.0)
           (-90.0 90.0)
           (-90.0 90.0)
  end
  begin
     id 26 
     name rradius
     direction -1 -4.48958e-011 -6.51059e-027   
     length 3.66953   
     axis 180 30 90   XYZ
    dof rx
    limits (-10.0 170.0)
  end
  begin
     id 27 
     name rwrist
     direction -1 -4.48975e-011 -1.74124e-026   
     length 1.83476   
     axis 1.04567e-014 -90 -90   XYZ
    dof ry
    limits (-180.0 0.0)
  end
  begin
     id 28
     name rhand
     direction -1 -4.49013e-011 -3.48326e-026   
     length 0.57843   
     axis 2.22196e-014 -90 -90   XYZ
    dof rx rz
    limits (-90.0 90.0)
           (-45.0 45.0)
  end
  begin
     id 29
     name rfingers
     direction -1 -4.49023e-011 -6.9669e-026   
     length 0.466345   
     axis 4.44383e-014 -90 -90   XYZ
    dof rx
    limits (0.0 90.0)
  end
  begin
     id 30
     name rthumb
     direction -0.707107 -6.34926e-011 0.707107   
     length 0.669581   
     axis -90 -45 5.4397e-014   XYZ
    dof rx rz
    limits (-45.0 45.0)
           (-45.0 45.0)
  end
:hierarchy
  begin
    root lhipjoint rhipjoint lowerback
    lhipjoint lfemur
    lfemur ltibia
    ltibia lfoot
    lfoot ltoes
    rhipjoint rfemur
    rfemur rtibia
    rtibia rfoot
    rfoot rtoes
    lowerback upperback
    upperback thorax
    thorax lowerneck lclavicle rclavicle
    lowerneck upperneck
    upperneck head
    lclavicle lhumerus
    lhumerus lradius
    lradius lwrist
    lwrist lhand lthumb
    lhand lfingers
    rclavicle rhumerus
    rhumerus rradius
    rradius rwrist
    rwrist rhand rthumb
    rhand rfingers
  end

#!OML:ASF H:\SkateBoarding\Project 1\Capture day 1\Session 1\Skater.ASF
:FULLY-SPECIFIED
:DEGREES
163
root 8.1701 18.6324 -22.9342 23.5088 5.23574 -1.28549
lowerback 27.7552 6.6026 -3.17572
upperback 9.68752 7.77247 3.43411
thorax -5.28541 3.6614 3.11054
lowerneck -28.9054 -6.94492 -5.94583
upperneck 22.8575 -9.53342 7.98201
head 13.159 -3.56796 2.21513
rclavicle -5.24792e-014 2.78299e-014
rhumerus 27.296 -6.91044 -68.5564
rradius 21.3996
rwrist 17.5016
rhand -31.2202 -7.79647
rfingers 7.12502
rthumb -4.49572 -37.7288
lclavicle -5.24792e-014 2.78299e-014
lhumerus -22.2752 -12.0942 86.0739
lradius 45.1871
lwrist 15.2125
lhand -19.4915 12.614
lfingers 7.12502
lthumb 6.83069 42.4838
rfemur -93.2741 -3.51368 9.43347
rtibia 103.282
rfoot -16.7675 27.4327
rtoes -10.9381
lfemur -32.5345 -2.21391 -17.3599
ltibia 30.6777
lfoot -17.5559 -14.5174
ltoes 7.45828
164
root 8.16053 18.5938 -22.7484 23.5135 5.29344 -1.49906
lowerback 27.7802 6.58809 -3.21956
upperback 9.67791 7.74043 3.41237
thorax -5.3072 3.64563 3.1196
lowerneck -28.7897 -6.82707 -5.83194
upperneck 22.8176 -9.4465 8.07167
head 13.1144 -3.51158 2.25145
rclavicle 4.77083e-014 3.97569e-015
rhumerus 27.7565 -6.98869 -68.7713
rradius 21.466
rwrist 17.3356
rhand -30.76 -8.70504
rfingers 7.12502
rthumb -4.05138 -38.6463
lclavicle 4.77083e-014 3.97569e-015
lhumerus -22.2296 -11.8605 85.67
lradius 45.2772
lwrist 15.2384
lhand -19.9975 11.9632
lfingers 7.12502
lthumb 6.34224 41.8482
rfemur -93.4251 -2.72818 9.01278
rtibia 101.378
rfoot -16.2678 27.4681
rtoes -10.9491
lfemur -32.8166 -1.71519 -17.1032
ltibia 32.3709
lfoot -16.5186 -15.3647
ltoes 8.39429
165
root 8.15028 18.5485 -22.5579 23.4892 5.36206 -1.64624
lowerback 27.7512 6.56558 -3.2986
upperback 9.65226 7.68986 3.35878
thorax -5.31944 3.62194 3.1231
lowerneck -28.6102 -6.70069 -5.68326
upperneck 22.8306 -9.36075 8.13282
head 13.0757 -3.45691 2.27208
rclavicle -3.02153e-014 -1.66979e-014
rhumerus 28.1383 -7.13177 -69.0529
rradius 21.5404
rwrist 17.2027
rhand -30.4463 -9.52796
rfingers 7.12502
rthumb -3.74846 -39.4747
lclavicle -3.02153e-014 -1.66979e-014
lhumerus -22.1868 -11.6947 85.2523
lradius 45.2941
lwrist 15.3201
lhand -20.5433 11.3231
lfingers 7.12502
lthumb 5.8153 41.2233
rfemur -93.399 -1.99614 8.55425
rtibia 99.4907
rfoot -15.4498 27.5496
rtoes -10.8102
lfemur -33.0838 -1.33857 -16.8792
ltibia 34.1481
lfoot -15.629 -16.1376
ltoes 9.05657
166
root 8.1401 18.4958 -22.3628 23.4327 5.44149 -1.7174
lowerback 27.6688 6.53243 -3.4072
upperback 9.61254 7.61892 3.27276
thorax -5.31924 3.58945 3.11788
lowerneck -28.3869 -6.56812 -5.49553
upperneck 22.9178 -9.27724 8.15059
head 13.0541 -3.40489 2.27026
rclavicle -3.97569e-014 5.48646e-014
rhumerus 28.4279 -7.31809 -69.3743
rradius 21.6444
rwrist 17.0578
rhand -30.251 -10.2856
rfingers 7.12502
rthumb -3.55986 -40.2356
lclavicle -3.97569e-014 5.48646e-014
lhumerus -22.1343 -11.6068 84.8219
lradius 45.2299
lwrist 15.478
lhand -21.1117 10.6887
lfingers 7.12502
lthumb 5.26649 40.6033
rfemur -93.2087 -1.32527 8.07021
rtibia 97.645
rfoot -14.323 27.6524
rtoes -10.4441
lfemur -33.3153 -1.09866 -16.7008
ltibia 35.9847
lfoot -14.9276 -16.8452
ltoes 9.47993
167
root 8.13005 18.4357 -22.1629 23.3337 5.53889 -1.70963
lowerback 27.5455 6.4908 -3.54979
upperback 9.56053 7.52981 3.16499
thorax -5.31254 3.54902 3.11639
lowerneck -28.1361 -6.42935 -5.26477
upperneck 23.0967 -9.19159 8.10437
head 13.0578 -3.35504 2.2382
rclavicle -4.77083e-015 1.11319e-014
rhumerus 28.6109 -7.50343 -69.6853
rradius 21.7931
rwrist 16.8565
rhand -30.1729 -10.9509
rfingers 7.12502
rthumb -3.48446 -40.9022
lclavicle -4.77083e-015 1.11319e-014
lhumerus -22.0593 -11.5976 84.3877
lradius 45.0831
lwrist 15.7169
lhand -21.6735 10.0711
lfingers 7.12502
lthumb 4.72406 39.9984
rfemur -92.8574 -0.717758 7.58088
rtibia 95.8655
rfoot -13.0366 27.6796
rtoes -9.91497
lfemur -33.4882 -0.988853 -16.5814
ltibia 37.8565
lfoot -14.425 -17.4882
ltoes 9.6366
168
root 8.12038 18.3681 -21.9584 23.1896 5.65787 -1.62035
lowerback 27.3853 6.44266 -3.72752
upperback 9.49516 7.4254 3.04208
thorax -5.30354 3.50195 3.12514
lowerneck -27.8674 -6.2854 -4.98049
upperneck 23.3784 -9.1019 7.9692
head 13.0908 -3.30825 2.16482
rclavicle -6.83819e-014 7.95139e-015
rhumerus 28.6649 -7.64686 -69.9407
rradius 21.9999
rwrist 16.5693
rhand -30.232 -11.5676
rfingers 7.12502
rthumb -3.54153 -41.5179
lclavicle -6.83819e-014 7.95139e-015
lhumerus -21.9691 -11.6687 83.9592
lradius 44.8896
lwrist 16.0187
lhand -22.2005 9.51951
lfingers 7.12502
lthumb 4.21512 39.4576
rfemur -92.3595 -0.173567 7.09548
rtibia 94.1708
rfoot -11.726 27.5625
rtoes -9.25358
lfemur -33.5838 -1.01077 -16.5271
ltibia 39.7396
lfoot -14.1401 -18.0959
ltoes 9.60721
169
root 8.11091 18.2934 -21.7493 22.9936 5.80326 -1.45864
lowerback 27.1935 6.39205 -3.95055
upperback 9.42035 7.30971 2.92272
thorax -5.29406 3.44981 3.1686
lowerneck -27.5961 -6.13842 -4.65168
upperneck 23.7677 -9.00431 7.73905
head 13.1583 -3.2637 2.0497
rclavicle -7.95139e-015 4.05521e-014
rhumerus 28.5929 -7.6682 -70.0537
rradius 22.2674
rwrist 16.1114
rhand -30.445 -12.1213
rfingers 7.12502
rthumb -3.74724 -42.0681
lclavicle -7.95139e-015 4.05521e-014
lhumerus -21.8613 -11.7972 83.5465
lradius 44.6604
lwrist 16.3631
lhand -22.6698 9.04963
lfingers 7.12502
lthumb 3.762 38.9962
rfemur -91.7222 0.316521 6.63026
rtibia 92.57
rfoot -10.5569 27.2465
rtoes -8.6167
lfemur -33.5855 -1.14382 -16.5389
ltibia 41.6149
lfoot -14.0771 -18.6647
ltoes 9.36247
170
root 8.10168 18.2124 -21.5355 22.7386 5.98618 -1.23829
lowerback 26.9909 6.333 -4.19951
upperback 9.33455 7.17963 2.81079
thorax -5.29333 3.3912 3.23948
lowerneck -27.3398 -5.9918 -4.28416
upperneck 24.2635 -8.90342 7.42674
head 13.2656 -3.22144 1.89725
rclavicle 3.18055e-015 2.46493e-014
rhumerus 28.3737 -7.57265 -70.0547
rradius 22.6037
rwrist 15.5255
rhand -30.8273 -12.5953
rfingers 7.12502
rthumb -4.11634 -42.5353
lclavicle 3.18055e-015 2.46493e-014
lhumerus -21.7177 -11.9499 83.1447
lradius 44.3955
lwrist 16.7026
lhand -23.0412 8.64493
lfingers 7.12502
lthumb 3.40332 38.5975
rfemur -90.9472 0.761138 6.19677
rtibia 91.0629
rfoot -9.67931 26.7082
rtoes -8.14642
lfemur -33.4764 -1.38226 -16.6059
ltibia 43.4634
lfoot -14.2805 -19.1848
ltoes 8.78157
171
root 8.09285 18.1254 -21.3174 22.4276 6.20789 -0.976245
lowerback 26.7834 6.265 -4.46614
upperback 9.23771 7.03683 2.71452
thorax -5.30416 3.3269 3.34113
lowerneck -27.1077 -5.84537 -3.88395
upperneck 24.8519 -8.79571 7.03814
head 13.4102 -3.17975 1.71063
rclavicle 1.11319e-014 -7.15625e-015
rhumerus 28.0275 -7.33337 -69.9159
rradius 22.9962
rwrist 14.8092
rhand -31.3846 -12.982
rfingers 7.12502
rthumb -4.65449 -42.9109
lclavicle 1.11319e-014 -7.15625e-015
lhumerus -21.5407 -12.1124 82.746
lradius 44.1192
lwrist 17.0007
lhand -23.303 8.34402
lfingers 7.12502
lthumb 3.15047 38.3005
rfemur -90.0543 1.1729 5.79752
rtibia 89.6403
rfoot -9.16014 25.9566
rtoes -7.87739
lfemur -33.2551 -1.71679 -16.7128
ltibia 45.2726
lfoot -14.712 -19.6614
ltoes 7.90406
172
root 8.08438 18.0331 -21.0951 22.056 6.47306 -0.698547
lowerback 26.5871 6.18446 -4.72486
upperback 9.12796 6.88222 2.63663
thorax -5.33379 3.25756 3.46058
lowerneck -26.8985 -5.70263 -3.46677
upperneck 25.5075 -8.68699 6.60608
head 13.586 -3.13869 1.50329
rclavicle -4.45278e-014 7.15625e-015
rhumerus 27.5536 -6.95876 -69.6616
rradius 23.4327
rwrist 14.047
rhand -32.0895 -13.2717
rfingers 7.12502
rthumb -5.33514 -43.1845
lclavicle -4.45278e-014 7.15625e-015
lhumerus -21.3292 -12.2633 82.3392
lradius 43.8557
lwrist 17.2071
lhand -23.4742 8.09119
lfingers 7.12502
lthumb 2.98518 38.05
rfemur -89.0516 1.57154 5.43893
rtibia 88.2884
rfoot -9.01717 25.0375
rtoes -7.83482
lfemur -32.9093 -2.13665 -16.8343
ltibia 47.0276
lfoot -15.3436 -20.0979
ltoes 6.72523
173
root 8.07641 17.9359 -20.8689 21.6298 6.77973 -0.426918
lowerback 26.3997 6.0948 -4.96393
upperback 9.01243 6.72316 2.58427
thorax -5.37347 3.18651 3.59725
lowerneck -26.7232 -5.56883 -3.04924
upperneck 26.1984 -8.58464 6.16144
head 13.7861 -3.09933 1.28766
rclavicle -1.06549e-013 -7.95139e-015
rhumerus 26.9928 -6.50509 -69.323
rradius 23.9138
rwrist 13.2455
rhand -32.8064 -13.4852
rfingers 7.12502
rthumb -6.02732 -43.3795
lclavicle -1.06549e-013 -7.95139e-015
lhumerus -21.0609 -12.3908 81.9176
lradius 43.6265
lwrist 17.3061
lhand -23.5822 7.89849
lfingers 7.12502
lthumb 2.88089 37.8588
rfemur -87.9661 1.97401 5.11666
rtibia 86.9928
rfoot -9.23132 23.9686
rtoes -8.07347
lfemur -32.4399 -2.6364 -16.9452
ltibia 48.7178
lfoot -16.1357 -20.5054
ltoes 5.29287
174
root 8.06896 17.834 -20.6388 21.155 7.12746 -0.183945
lowerback 26.2199 5.99447 -5.15937
upperback 8.89386 6.56326 2.55756
thorax -5.41755 3.11547 3.73685
lowerneck -26.5855 -5.44959 -2.66201
upperneck 26.8946 -8.49756 5.75194
head 14.0044 -3.06257 1.08534
rclavicle 7.95139e-015 -1.98785e-014
rhumerus 26.3741 -5.99694 -68.9204
rradius 24.422
rwrist 12.4464
rhand -33.4967 -13.6583
rfingers 7.12502
rthumb -6.69369 -43.5325
lclavicle 7.95139e-015 -1.98785e-014
lhumerus -20.7238 -12.4926 81.4688
lradius 43.446
lwrist 17.292
lhand -23.6761 7.62576
lfingers 7.12502
lthumb 2.79021 37.5873
rfemur -86.8256 2.3924 4.83096
rtibia 85.7416
rfoot -9.71671 22.7872
rtoes -8.55086
lfemur -31.8505 -3.20468 -17.0206
ltibia 50.3317
lfoot -16.9448 -20.9542
ltoes 3.92133
175
root 8.06145 17.7277 -20.4053 20.6396 7.51199 0.0148492
lowerback 26.0452 5.88604 -5.3058
upperback 8.77399 6.40686 2.55682
thorax -5.46314 3.04641 3.87552
lowerneck -26.4742 -5.34403 -2.32232
upperneck 27.5613 -8.42681 5.41019
head 14.2267 -3.02738 0.912154
rclavicle 3.33958e-014 -1.51076e-014
rhumerus 25.7113 -5.46902 -68.4902
rradius 24.9529
rwrist 11.7011
rhand -34.1078 -13.8058
rfingers 7.12502
rthumb -7.28359 -43.6604
lclavicle 3.33958e-014 -1.51076e-014
lhumerus -20.3154 -12.5695 80.9782
lradius 43.3568
lwrist 17.2008
lhand -23.8042 7.36206
lfingers 7.12502
lthumb 2.66649 37.3251
rfemur -85.6634 2.84021 4.57618
rtibia 84.5285
rfoot -10.3629 21.5071
rtoes -9.19458
lfemur -31.1501 -3.81459 -17.0447
ltibia 51.8599
lfoot -17.6944 -21.4681
ltoes 2.73195
176
root 8.05356 17.6165 -20.1682 20.0967 7.9189 0.166143
lowerback 25.8559 5.77628 -5.41352
upperback 8.65973 6.26093 2.58179
thorax -5.49487 2.98219 4.01809
lowerneck -26.3723 -5.26808 -1.98633
upperneck 28.1453 -8.37602 5.03331
head 14.4171 -3.00798 0.719178
rclavicle 2.78299e-014 -2.62396e-014
rhumerus 25.0362 -4.91512 -68.0071
rradius 25.4957
rwrist 10.9694
rhand -34.6087 -13.956
rfingers 7.12502
rthumb -7.76711 -43.7934
lclavicle 2.78299e-014 -2.62396e-014
lhumerus -19.8273 -12.6237 80.4401
lradius 43.3986
lwrist 17.0885
lhand -24.0047 7.09897
lfingers 7.12502
lthumb 2.47282 37.0644
rfemur -84.5242 3.3234 4.33849
rtibia 83.3567
rfoot -11.1072 20.1433
rtoes -10.0443
lfemur -30.3324 -4.43866 -17.0149
ltibia 53.2967
lfoot -18.2736 -22.1294
ltoes 1.93456
177
root 8.0447 17.5007 -19.9273 19.5377 8.33439 0.270776
lowerback 25.6457 5.66471 -5.48096
upperback 8.55371 6.12412 2.61622
thorax -5.50471 2.92194 4.14669
lowerneck -26.294 -5.21674 -1.6886
upperneck 28.649 -8.35348 4.7063
head 14.5858 -2.99884 0.544658
rclavicle -3.97569e-015 1.59028e-014
rhumerus 24.3701 -4.3233 -67.4758
rradius 26.0407
rwrist 10.1903
rhand -35.0026 -14.0742
rfingers 7.12502
rthumb -8.14732 -43.8972
lclavicle -3.97569e-015 1.59028e-014
lhumerus -19.2416 -12.6673 79.8234
lradius 43.5965
lwrist 17.0362
lhand -24.2926 6.82623
lfingers 7.12502
lthumb 2.19478 36.7947
rfemur -83.439 3.84508 4.10918
rtibia 82.226
rfoot -11.7975 18.7171
rtoes -10.9272
lfemur -29.4119 -5.03325 -16.9364
ltibia 54.6359
lfoot -18.6128 -22.9442
ltoes 1.54597
